<?xml version="1.0" encoding="UTF-8" standalone="no" ?>
<!DOCTYPE svg PUBLIC "-//W3C//DTD SVG 1.1//EN" "http://www.w3.org/Graphics/SVG/1.1/DTD/svg11.dtd">
<svg xmlns="http://www.w3.org/2000/svg" xmlns:xlink="http://www.w3.org/1999/xlink" version="1.1" width="1080" height="1080" viewBox="0 0 1080 1080" xml:space="preserve">
<desc>Created with Fabric.js 5.2.4</desc>
<defs>
</defs>
<g transform="matrix(1 0 0 1 540 540)" id="ff860a8e-a725-487f-ade8-282ed9320c61"  >
</g>
<g transform="matrix(1 0 0 1 540 540)" id="3f7d3c20-ddb1-45bc-b0a2-45a9d0cab39c"  >
<rect style="stroke: none; stroke-width: 1; stroke-dasharray: none; stroke-linecap: butt; stroke-dashoffset: 0; stroke-linejoin: miter; stroke-miterlimit: 4; fill: rgb(255,255,255); fill-rule: nonzero; opacity: 1; visibility: hidden;" vector-effect="non-scaling-stroke"  x="-540" y="-540" rx="0" ry="0" width="1080" height="1080" />
</g>
<g transform="matrix(1.14 0 0 1.59 540.14 540.24)"  >
<g style="" vector-effect="non-scaling-stroke"   >
		<g transform="matrix(1 0 0 1 -118.56 205.15)"  >
<polygon style="stroke: none; stroke-width: 1; stroke-dasharray: none; stroke-linecap: butt; stroke-dashoffset: 0; stroke-linejoin: miter; stroke-miterlimit: 4; fill: rgb(248,192,157); fill-rule: nonzero; opacity: 1;" vector-effect="non-scaling-stroke"  points="-73.2,111.65 -101.1,89.65 56.4,-111.65 101.1,-76.35 " />
</g>
		<g transform="matrix(1 0 0 1 -214.96 284.3)"  >
<path style="stroke: none; stroke-width: 1; stroke-dasharray: none; stroke-linecap: butt; stroke-dashoffset: 0; stroke-linejoin: miter; stroke-miterlimit: 4; fill: rgb(21,97,160); fill-rule: nonzero; opacity: 1;" vector-effect="non-scaling-stroke"  transform=" translate(-721.4, -849.4)" d="M 737.8 821.6 C 736.5999999999999 808.9 724.3 800.3000000000001 712.1999999999999 802.8000000000001 C 712.1999999999999 802.8000000000001 702.9999999999999 804.9000000000001 701.0999999999999 805.4000000000001 C 689.1999999999999 807.9000000000001 710.8 898.3000000000001 719.6999999999999 896.4000000000001 L 719.6999999999999 896.4000000000001 C 721.9 895.9000000000001 728.9999999999999 894.3000000000001 730.9999999999999 894.2 L 730.9999999999999 894.2 C 739.9999999999999 891.7 747.1999999999999 881.7 744.6999999999999 871.7 C 743.6999999999999 867.7 740.6999999999999 858.8000000000001 739.9 853.6 C 738.4 843.8 738.9 833.7 737.8 821.6 z" stroke-linecap="round" />
</g>
		<g transform="matrix(1 0 0 1 -227.21 285.41)"  >
<path style="stroke: none; stroke-width: 1; stroke-dasharray: none; stroke-linecap: butt; stroke-dashoffset: 0; stroke-linejoin: miter; stroke-miterlimit: 4; fill: rgb(242,242,242); fill-rule: nonzero; opacity: 1;" vector-effect="non-scaling-stroke"  transform=" translate(-709.15, -850.51)" d="M 719.7 896.1 L 719.7 896.1 C 710.3000000000001 898.1 701 892.4 698.4000000000001 883.2 L 684.9000000000001 831.3000000000001 C 681.8000000000001 819.5000000000001 689.2 807.6 701.1000000000001 805.0000000000001 L 701.1000000000001 805.0000000000001 C 713.6000000000001 802.3000000000001 725.6000000000001 811.2000000000002 726.8000000000002 823.9000000000001 C 727.9000000000002 836.0000000000001 727.3000000000002 846.0000000000001 728.8000000000002 855.8000000000001 C 729.6000000000001 861.0000000000001 732.6000000000001 869.8000000000001 733.6000000000001 873.8000000000001 C 736 883.8 729.8 893.9 719.7 896.1 z" stroke-linecap="round" />
</g>
		<g transform="matrix(1 0 0 1 104.9 -33.75)"  >
<path style="stroke: none; stroke-width: 1; stroke-dasharray: none; stroke-linecap: butt; stroke-dashoffset: 0; stroke-linejoin: miter; stroke-miterlimit: 4; fill: rgb(248,192,157); fill-rule: nonzero; opacity: 1;" vector-effect="non-scaling-stroke"  transform=" translate(-1041.26, -531.35)" d="M 1096.5 598.8 L 1096.5 598.8 C 1088.6 605.3 1077 604.0999999999999 1070.5 596.1999999999999 L 983.5 489.8999999999999 C 977 481.99999999999994 978.2 470.3999999999999 986.1 463.8999999999999 L 986.1 463.8999999999999 C 994 457.3999999999999 1005.6 458.5999999999999 1012.1 466.49999999999994 L 1099.1 572.8 C 1105.5 580.7 1104.3 592.3 1096.5 598.8 z" stroke-linecap="round" />
</g>
		<g transform="matrix(1 0 0 1 82.97 -56.01)"  >
<path style="stroke: none; stroke-width: 1; stroke-dasharray: none; stroke-linecap: butt; stroke-dashoffset: 0; stroke-linejoin: miter; stroke-miterlimit: 4; fill: rgb(6,80,130); fill-rule: nonzero; opacity: 1;" vector-effect="non-scaling-stroke"  transform=" translate(-1019.34, -509.09)" d="M 1018.1 563.9 L 1070.9 522.9 L 1027.6000000000001 467.2 C 1016.3000000000002 452.59999999999997 995.3000000000002 450 980.7000000000002 461.3 L 980.7000000000002 461.3 C 966.1000000000001 472.6 963.5000000000001 493.6 974.8000000000002 508.2 L 1018.1 563.9 z" stroke-linecap="round" />
</g>
		<g transform="matrix(1 0 0 1 -121.62 -128.38)"  >
<path style="stroke: none; stroke-width: 1; stroke-dasharray: none; stroke-linecap: butt; stroke-dashoffset: 0; stroke-linejoin: miter; stroke-miterlimit: 4; fill: rgb(248,192,157); fill-rule: nonzero; opacity: 1;" vector-effect="non-scaling-stroke"  transform=" translate(-814.75, -436.72)" d="M 742.6 378.9 L 742.6 378.9 C 736.2 386.79999999999995 737.5 398.5 745.5 404.79999999999995 L 861 497.4 C 868.9 503.79999999999995 880.6 502.5 886.9 494.5 L 886.9 494.5 C 893.3 486.6 892 474.9 884 468.6 L 768.6 376 C 760.6 369.7 749 370.9 742.6 378.9 z" stroke-linecap="round" />
</g>
		<g transform="matrix(1 0 0 1 -97.42 -99.08)"  >
<path style="stroke: none; stroke-width: 1; stroke-dasharray: none; stroke-linecap: butt; stroke-dashoffset: 0; stroke-linejoin: miter; stroke-miterlimit: 4; fill: rgb(6,80,130); fill-rule: nonzero; opacity: 1;" vector-effect="non-scaling-stroke"  transform=" translate(-838.94, -466.02)" d="M 784.7 463.1 L 829.5 413.40000000000003 L 882.3 461.00000000000006 C 895.8 473.1000000000001 896.9 493.90000000000003 884.6999999999999 507.40000000000003 L 884.6999999999999 507.40000000000003 C 872.0999999999999 521.3000000000001 850.5999999999999 522.5 836.6999999999999 509.90000000000003 L 784.7 463.1 z" stroke-linecap="round" />
</g>
		<g transform="matrix(1 0 0 1 -60.48 139.38)"  >
<path style="stroke: none; stroke-width: 1; stroke-dasharray: none; stroke-linecap: butt; stroke-dashoffset: 0; stroke-linejoin: miter; stroke-miterlimit: 4; fill: rgb(34,181,115); fill-rule: nonzero; opacity: 1;" vector-effect="non-scaling-stroke"  transform=" translate(-875.88, -704.48)" d="M 869.2 767.8 C 867.7 769.8 865.5 771.0999999999999 863 771.3 C 856.7 771.8 843 771.5 822.4 763.9 C 805.4 757.6999999999999 796.9 751.1999999999999 792.6999999999999 746.6 C 789.9 743.5 789.6999999999999 738.8000000000001 792.3 735.6 L 861.1999999999999 637.5 L 961.3 657.1 L 869.2 767.8 z" stroke-linecap="round" />
</g>
		<g transform="matrix(1 0 0 1 -95.81 174.65)"  >
<path style="stroke: none; stroke-width: 1; stroke-dasharray: none; stroke-linecap: butt; stroke-dashoffset: 0; stroke-linejoin: miter; stroke-miterlimit: 4; fill: rgb(27,150,91); fill-rule: nonzero; opacity: 1;" vector-effect="non-scaling-stroke"  transform=" translate(-840.55, -739.75)" d="M 795.3 731.6 C 795.3 731.6 816.4 745.9 833.8 751.5 C 857.5 759.1 875.5 760.3 875.5 760.3 L 885.8 747.8 C 885.8 747.8 860.9 744.1999999999999 842.1999999999999 737.5 C 825.1999999999999 731.4 803.9999999999999 719.2 803.9999999999999 719.2 L 795.3 731.6 z" stroke-linecap="round" />
</g>
		<g transform="matrix(1 0 0 1 6.74 101.7)"  >
<path style="stroke: none; stroke-width: 1; stroke-dasharray: none; stroke-linecap: butt; stroke-dashoffset: 0; stroke-linejoin: miter; stroke-miterlimit: 4; fill: rgb(34,181,115); fill-rule: nonzero; opacity: 1;" vector-effect="non-scaling-stroke"  transform=" translate(-943.1, -666.8)" d="M 966.6 696.2 L 919.6 696.2 C 887.1 696.2 860.8000000000001 669.9000000000001 860.8000000000001 637.4000000000001 L 860.8000000000001 637.4000000000001 L 1025.4 637.4000000000001 L 1025.4 637.4000000000001 C 1025.4 669.9 999.1 696.2 966.6 696.2 z" stroke-linecap="round" />
</g>
		<g transform="matrix(1 0 0 1 6.64 -7.65)"  >
<path style="stroke: none; stroke-width: 1; stroke-dasharray: none; stroke-linecap: butt; stroke-dashoffset: 0; stroke-linejoin: miter; stroke-miterlimit: 4; fill: rgb(21,97,160); fill-rule: nonzero; opacity: 1;" vector-effect="non-scaling-stroke"  transform=" translate(-943, -557.45)" d="M 1025 638.7 C 1025 638.7 1004.8 657.2 942.8 657.2 C 880.8 657.2 860.8 638.7 860.8 638.7 L 860.9 486.30000000000007 C 860.9 470.50000000000006 873.6999999999999 457.70000000000005 889.5 457.70000000000005 L 996.6 457.70000000000005 C 1012.4 457.70000000000005 1025.2 470.50000000000006 1025.2 486.30000000000007 L 1025 638.7 z" stroke-linecap="round" />
</g>
		<g transform="matrix(1 0 0 1 6.57 -73.79)"  >
<path style="stroke: none; stroke-width: 1; stroke-dasharray: none; stroke-linecap: butt; stroke-dashoffset: 0; stroke-linejoin: miter; stroke-miterlimit: 4; fill: rgb(6,80,130); fill-rule: nonzero; opacity: 1;" vector-effect="non-scaling-stroke"  transform=" translate(-942.93, -491.31)" d="M 918.7 469 L 915.6 470.8 C 908.5 474.90000000000003 905.6 483.7 908.9 491.3 C 914.5 504.1 927.1 513.2 941.9 513.6 L 941.9 513.6 C 957.8 514 971.4 504.70000000000005 977.1 491.1 C 980.1 483.8 977.4 475.40000000000003 970.7 471.20000000000005 L 967.4000000000001 469.1 L 918.7 469.1 z" stroke-linecap="round" />
</g>
		<g transform="matrix(1 0 0 1 6.68 -87.55)"  >
<path style="stroke: none; stroke-width: 1; stroke-dasharray: none; stroke-linecap: butt; stroke-dashoffset: 0; stroke-linejoin: miter; stroke-miterlimit: 4; fill: rgb(248,192,157); fill-rule: nonzero; opacity: 1;" vector-effect="non-scaling-stroke"  transform=" translate(-943.05, -477.55)" d="M 942.4 501.4 L 942.4 501.4 C 929.1 501.09999999999997 918.4 490.09999999999997 918.5 476.79999999999995 L 918.6 453.69999999999993 L 967.6 454.99999999999994 L 967.5 477.09999999999997 C 967.4 490.7 956.1 501.7 942.4 501.4 z" stroke-linecap="round" />
</g>
		<g transform="matrix(1 0 0 1 6.69 -96.7)"  >
<path style="stroke: none; stroke-width: 1; stroke-dasharray: none; stroke-linecap: butt; stroke-dashoffset: 0; stroke-linejoin: miter; stroke-miterlimit: 4; fill: rgb(246,174,141); fill-rule: nonzero; opacity: 1;" vector-effect="non-scaling-stroke"  transform=" translate(-943.05, -468.4)" d="M 918.5 472 C 926.3 474.8 934.5 476.2 942.7 476.2 C 951.1 476.2 959.5 474.59999999999997 967.5 471.8 L 967.6 461.90000000000003 L 918.6 460.6 L 918.5 472 z" stroke-linecap="round" />
</g>
		<g transform="matrix(1 0 0 1 6.54 -194.45)"  >
<path style="stroke: none; stroke-width: 1; stroke-dasharray: none; stroke-linecap: butt; stroke-dashoffset: 0; stroke-linejoin: miter; stroke-miterlimit: 4; fill: rgb(248,192,157); fill-rule: nonzero; opacity: 1;" vector-effect="non-scaling-stroke"  transform=" translate(-942.9, -370.65)" d="M 942.7 465.8 C 906.5 465.8 870.2 437.1 870.2 396.70000000000005 L 870.2 275.5 L 1015.6 275.5 L 1015.6 396.8 C 1015.6 437 978.9 465.8 942.7 465.8 z" stroke-linecap="round" />
</g>
		<g transform="matrix(1 0 0 1 -66.16 -217.4)"  >
<rect style="stroke: none; stroke-width: 1; stroke-dasharray: none; stroke-linecap: butt; stroke-dashoffset: 0; stroke-linejoin: miter; stroke-miterlimit: 4; fill: rgb(51,51,51); fill-rule: nonzero; opacity: 1;" vector-effect="non-scaling-stroke"  x="-17.1" y="-18.4" rx="0" ry="0" width="34.2" height="36.8" />
</g>
		<g transform="matrix(1 0 0 1 -66.46 -201.1)"  >
<circle style="stroke: none; stroke-width: 1; stroke-dasharray: none; stroke-linecap: butt; stroke-dashoffset: 0; stroke-linejoin: miter; stroke-miterlimit: 4; fill: rgb(248,192,157); fill-rule: nonzero; opacity: 1;" vector-effect="non-scaling-stroke"  cx="0" cy="0" r="20.7" />
</g>
		<g transform="matrix(1 0 0 1 -67.06 -201.45)"  >
<path style="stroke: none; stroke-width: 1; stroke-dasharray: none; stroke-linecap: butt; stroke-dashoffset: 0; stroke-linejoin: miter; stroke-miterlimit: 4; fill: rgb(239,147,126); fill-rule: nonzero; opacity: 1;" vector-effect="non-scaling-stroke"  transform=" translate(-869.3, -363.65)" d="M 865.7 366.9 C 865.7 362.9 869 359.59999999999997 873 359.59999999999997 C 874.1 359.59999999999997 875.2 359.9 876.1 360.29999999999995 C 874.8000000000001 358.09999999999997 872.5 356.69999999999993 869.8000000000001 356.69999999999993 C 865.8000000000001 356.69999999999993 862.5000000000001 359.99999999999994 862.5000000000001 363.99999999999994 C 862.5000000000001 366.8999999999999 864.2000000000002 369.3999999999999 866.7000000000002 370.59999999999997 C 866.1 369.5 865.7 368.3 865.7 366.9 z" stroke-linecap="round" />
</g>
		<g transform="matrix(1 0 0 1 85.74 -249)"  >
<path style="stroke: none; stroke-width: 1; stroke-dasharray: none; stroke-linecap: butt; stroke-dashoffset: 0; stroke-linejoin: miter; stroke-miterlimit: 4; fill: rgb(51,51,51); fill-rule: nonzero; opacity: 1;" vector-effect="non-scaling-stroke"  transform=" translate(-1022.1, -316.1)" d="M 1011.6 275.5 L 1018.9 275.5 C 1026.5 275.5 1032.7 281.7 1032.7 289.3 L 1032.7 356.70000000000005 L 1011.5 356.70000000000005 L 1011.5 275.5 z" stroke-linecap="round" />
</g>
		<g transform="matrix(1 0 0 1 14.81 -182.53)"  >
<path style="stroke: none; stroke-width: 1; stroke-dasharray: none; stroke-linecap: butt; stroke-dashoffset: 0; stroke-linejoin: miter; stroke-miterlimit: 4; fill: rgb(239,147,126); fill-rule: nonzero; opacity: 1;" vector-effect="non-scaling-stroke"  transform=" translate(-951.17, -382.57)" d="M 944.6 375.1 L 944.6 390.1 C 944.6 390.8 945.4 391.3 946.1 391.3 L 954.9 391.3 C 957.3 391.3 958.6 388.5 957.1 386.7 L 947 374.3 C 946.2 373.4 944.6 373.9 944.6 375.1 z" stroke-linecap="round" />
</g>
		<g transform="matrix(1 0 0 1 -0.31 -257.48)"  >
<path style="stroke: none; stroke-width: 1; stroke-dasharray: none; stroke-linecap: butt; stroke-dashoffset: 0; stroke-linejoin: miter; stroke-miterlimit: 4; fill: rgb(51,51,51); fill-rule: nonzero; opacity: 1;" vector-effect="non-scaling-stroke"  transform=" translate(-936.05, -307.62)" d="M 882.7 274.9 L 882.7 275.2 L 872.6 275.09999999999997 C 861.9 274.99999999999994 853.2 283.7 853.2 294.4 L 853.2 294.4 L 853.2 307.7 L 853.2 342 L 885.8000000000001 342.9 L 886.1 332.9 C 886.3000000000001 326.29999999999995 891.8000000000001 321.09999999999997 898.4 321.2 L 995.1999999999999 323.8 C 1007.9 324.1 1018.5999999999999 314 1018.9 301.3 C 1018.9 301.5 883 262.1 882.7 274.9 z" stroke-linecap="round" />
</g>
		<g transform="matrix(1 0 0 1 7.94 -291.73)"  >
<path style="stroke: none; stroke-width: 1; stroke-dasharray: none; stroke-linecap: butt; stroke-dashoffset: 0; stroke-linejoin: miter; stroke-miterlimit: 4; fill: rgb(51,51,51); fill-rule: nonzero; opacity: 1;" vector-effect="non-scaling-stroke"  transform=" translate(-944.31, -273.36)" d="M 873.8 274.9 C 871.9 259 874.0999999999999 249.89999999999998 884.9 240.99999999999997 C 891.9 235.29999999999998 904.3 233.59999999999997 908.9 233.69999999999996 C 911.9 233.79999999999995 915 234.29999999999995 917.6999999999999 235.79999999999995 C 923.4 238.89999999999995 926.4999999999999 246.49999999999994 924.8 252.99999999999994 C 928.4 248.69999999999993 932.6999999999999 244.99999999999994 937.4 242.09999999999994 C 943.4 238.29999999999993 950.5 235.69999999999993 957.3 237.39999999999995 C 964.0999999999999 239.09999999999994 969.8 246.49999999999994 967.9 253.59999999999994 C 971.6999999999999 251.69999999999993 974.9 248.89999999999995 978.6 246.79999999999993 C 984.5 243.49999999999991 991.5 242.49999999999991 998 243.99999999999991 C 1000.4 244.5999999999999 1002.8 245.49999999999991 1004.9 246.89999999999992 C 1009.1999999999999 249.79999999999993 1011.9 254.69999999999993 1013.1999999999999 259.8999999999999 C 1014.4999999999999 265.0999999999999 1019.9 292.99999999999994 1006.9999999999999 311.8999999999999 C 1005.3999999999999 314.2999999999999 994.5999999999999 312.19999999999993 991.7999999999998 311.7999999999999 L 873.8 274.9 z" stroke-linecap="round" />
</g>
		<g transform="matrix(1 0 0 1 6.54 -245.3)"  >
<rect style="stroke: none; stroke-width: 1; stroke-dasharray: none; stroke-linecap: butt; stroke-dashoffset: 0; stroke-linejoin: miter; stroke-miterlimit: 4; fill: rgb(21,97,160); fill-rule: nonzero; opacity: 1;" vector-effect="non-scaling-stroke"  x="-89.8" y="-12" rx="0" ry="0" width="179.6" height="24" />
</g>
		<g transform="matrix(1 0 0 1 78.84 -201.1)"  >
<circle style="stroke: none; stroke-width: 1; stroke-dasharray: none; stroke-linecap: butt; stroke-dashoffset: 0; stroke-linejoin: miter; stroke-miterlimit: 4; fill: rgb(248,192,157); fill-rule: nonzero; opacity: 1;" vector-effect="non-scaling-stroke"  cx="0" cy="0" r="20.7" />
</g>
		<g transform="matrix(1 0 0 1 82.04 -201.45)"  >
<path style="stroke: none; stroke-width: 1; stroke-dasharray: none; stroke-linecap: butt; stroke-dashoffset: 0; stroke-linejoin: miter; stroke-miterlimit: 4; fill: rgb(239,147,126); fill-rule: nonzero; opacity: 1;" vector-effect="non-scaling-stroke"  transform=" translate(-1018.4, -363.65)" d="M 1022 366.9 C 1022 362.9 1018.7 359.59999999999997 1014.7 359.59999999999997 C 1013.6 359.59999999999997 1012.5 359.9 1011.6 360.29999999999995 C 1012.9 358.09999999999997 1015.2 356.69999999999993 1017.9 356.69999999999993 C 1021.9 356.69999999999993 1025.2 359.99999999999994 1025.2 363.99999999999994 C 1025.2 366.8999999999999 1023.5 369.3999999999999 1021 370.59999999999997 C 1021.7 369.5 1022 368.3 1022 366.9 z" stroke-linecap="round" />
</g>
		<g transform="matrix(1 -0.01 0.01 1 -18.63 -198.38)"  >
<ellipse style="stroke: none; stroke-width: 1; stroke-dasharray: none; stroke-linecap: butt; stroke-dashoffset: 0; stroke-linejoin: miter; stroke-miterlimit: 4; fill: rgb(51,51,51); fill-rule: nonzero; opacity: 1;" vector-effect="non-scaling-stroke"  cx="0" cy="0" rx="5" ry="8.8" />
</g>
		<g transform="matrix(1 -0.01 0.01 1 44.87 -198.98)"  >
<ellipse style="stroke: none; stroke-width: 1; stroke-dasharray: none; stroke-linecap: butt; stroke-dashoffset: 0; stroke-linejoin: miter; stroke-miterlimit: 4; fill: rgb(51,51,51); fill-rule: nonzero; opacity: 1;" vector-effect="non-scaling-stroke"  cx="0" cy="0" rx="5" ry="8.8" />
</g>
		<g transform="matrix(1 0 0 1 13.11 -142.12)"  >
<path style="stroke: none; stroke-width: 1; stroke-dasharray: none; stroke-linecap: butt; stroke-dashoffset: 0; stroke-linejoin: miter; stroke-miterlimit: 4; fill: rgb(175,65,53); fill-rule: nonzero; opacity: 1;" vector-effect="non-scaling-stroke"  transform=" translate(-949.48, -422.98)" d="M 928.6 437.7 C 928.2 437.9 927.9 438.2 927.5 438.3 C 925.8 439 923.7 438.90000000000003 922.5 437.6 C 920.4 435.6 921.6 432.40000000000003 922.3 430 C 923 427.8 923.9 425.7 924.9 423.7 C 929.6999999999999 414.5 938.1 407 948.6 405.9 C 969.8000000000001 403.7 982.3000000000001 427.9 976 439.09999999999997 C 975.5 439.9 974.4 440.2 973.5 440.2 C 971.9 440.09999999999997 970.9 438.4 969.8 437.2 C 965.4 432.09999999999997 959.0999999999999 434.7 953.1999999999999 434.59999999999997 C 948.4999999999999 434.49999999999994 943.8 433.9 939.0999999999999 434.09999999999997 C 936.8999999999999 434.2 934.4999999999999 434.29999999999995 932.3999999999999 434.99999999999994 C 930.9 435.5 929.9 436.8 928.6 437.7 z" stroke-linecap="round" />
</g>
		<g transform="matrix(1 0 0 1 16.91 -121.45)"  >
<path style="stroke: none; stroke-width: 1; stroke-dasharray: none; stroke-linecap: butt; stroke-dashoffset: 0; stroke-linejoin: miter; stroke-miterlimit: 4; fill: rgb(239,147,126); fill-rule: nonzero; opacity: 1;" vector-effect="non-scaling-stroke"  transform=" translate(-953.27, -443.65)" d="M 938.2 428.2 C 944.2 424 953.4000000000001 422.09999999999997 961.7 426.8 C 968.2 430.5 971.9000000000001 435.40000000000003 973.6 445.40000000000003 C 976.4 461.90000000000003 954.8000000000001 470.00000000000006 951.8000000000001 456.3 C 950.3000000000001 449.3 949.3000000000001 445.8 946.5000000000001 439.7 C 943.9000000000001 434 941.4000000000001 434.3 937.0000000000001 434.4 C 933.1000000000001 434.5 932.7000000000002 434.79999999999995 932.7000000000002 434.79999999999995 C 932.7000000000002 434.79999999999995 933 431.9 938.2 428.2 z" stroke-linecap="round" />
</g>
		<g transform="matrix(1 0 0 1 14.19 -154.45)"  >
<path style="stroke: none; stroke-width: 1; stroke-dasharray: none; stroke-linecap: butt; stroke-dashoffset: 0; stroke-linejoin: miter; stroke-miterlimit: 4; fill: rgb(255,255,255); fill-rule: nonzero; opacity: 1;" vector-effect="non-scaling-stroke"  transform=" translate(-950.55, -410.64)" d="M 950.8 415.6 C 959.5 415.70000000000005 965.4 414.1 968.6999999999999 412.8 C 963.6999999999999 408.1 956.8 405 948.6999999999999 405.8 C 942.0999999999999 406.5 936.6999999999999 409.6 932.4 413.6 C 935.8 414.5 941.9 415.5 950.8 415.6 z" stroke-linecap="round" />
</g>
		<g transform="matrix(1 0 0 1 -18.86 -207.29)"  >
<path style="stroke: none; stroke-width: 1; stroke-dasharray: none; stroke-linecap: butt; stroke-dashoffset: 0; stroke-linejoin: miter; stroke-miterlimit: 4; fill: rgb(248,192,157); fill-rule: nonzero; opacity: 1;" vector-effect="non-scaling-stroke"  transform=" translate(-917.5, -357.81)" d="M 909.4 361.7 C 909.4 361.7 912.6999999999999 363 917.6999999999999 362.59999999999997 C 923.6999999999999 362.09999999999997 925.5999999999999 359.4 925.5999999999999 359.4 C 925.5999999999999 359.4 922.3999999999999 352.2 917.4999999999999 353 C 912.6 353.7 909.4 361.7 909.4 361.7 z" stroke-linecap="round" />
</g>
		<g transform="matrix(1 0 0 1 45.14 -208.29)"  >
<path style="stroke: none; stroke-width: 1; stroke-dasharray: none; stroke-linecap: butt; stroke-dashoffset: 0; stroke-linejoin: miter; stroke-miterlimit: 4; fill: rgb(248,192,157); fill-rule: nonzero; opacity: 1;" vector-effect="non-scaling-stroke"  transform=" translate(-981.5, -356.81)" d="M 989.6 360.7 C 989.6 360.7 986.3000000000001 362 981.3000000000001 361.59999999999997 C 975.3000000000001 361.09999999999997 973.4000000000001 358.4 973.4000000000001 358.4 C 973.4000000000001 358.4 976.6000000000001 351.2 981.5000000000001 352 C 986.4 352.7 989.6 360.7 989.6 360.7 z" stroke-linecap="round" />
</g>
		<g transform="matrix(1 0 0 1 -22.66 -214.69)"  >
<path style="stroke: rgb(51,51,51); stroke-width: 4; stroke-dasharray: none; stroke-linecap: butt; stroke-dashoffset: 0; stroke-linejoin: round; stroke-miterlimit: 10; fill: none; fill-rule: nonzero; opacity: 1;" vector-effect="non-scaling-stroke"  transform=" translate(-913.7, -350.41)" d="M 906 354.1 C 906 354.1 910.9 355.3 915.8 352.1 C 920.6999999999999 348.90000000000003 921.4 346.5 921.4 346.5" stroke-linecap="round" />
</g>
		<g transform="matrix(1 0 0 1 49.29 -214.5)"  >
<path style="stroke: rgb(51,51,51); stroke-width: 4; stroke-dasharray: none; stroke-linecap: butt; stroke-dashoffset: 0; stroke-linejoin: round; stroke-miterlimit: 10; fill: none; fill-rule: nonzero; opacity: 1;" vector-effect="non-scaling-stroke"  transform=" translate(-985.65, -350.6)" d="M 977.6 347.5 C 977.6 347.5 980.2 351.8 985.8000000000001 353.1 C 991.5000000000001 354.40000000000003 993.7 353.20000000000005 993.7 353.20000000000005" stroke-linecap="round" />
</g>
		<g transform="matrix(1 0 0 1 -45.52 -196.39)"  >
<path style="stroke: none; stroke-width: 1; stroke-dasharray: none; stroke-linecap: butt; stroke-dashoffset: 0; stroke-linejoin: miter; stroke-miterlimit: 4; fill: rgb(255,255,255); fill-rule: nonzero; opacity: 1;" vector-effect="non-scaling-stroke"  transform=" translate(-890.84, -368.71)" d="M 891.2 356.9 C 891.2 356.9 885.7 368.5 886.5 375.59999999999997 C 887.3 382.79999999999995 894.5 381.49999999999994 895.2 375.59999999999997 C 895.8 369.7 891.2 356.9 891.2 356.9 z" stroke-linecap="round" />
</g>
		<g transform="matrix(1 0 0 1 -56.96 -176.06)"  >
<path style="stroke: none; stroke-width: 1; stroke-dasharray: none; stroke-linecap: butt; stroke-dashoffset: 0; stroke-linejoin: miter; stroke-miterlimit: 4; fill: rgb(255,255,255); fill-rule: nonzero; opacity: 1;" vector-effect="non-scaling-stroke"  transform=" translate(-879.4, -389.04)" d="M 879.7 380.9 C 879.7 380.9 875.9000000000001 388.9 876.4000000000001 393.79999999999995 C 876.9000000000001 398.69999999999993 881.9000000000001 397.9 882.4000000000001 393.79999999999995 C 882.9 389.7 879.7 380.9 879.7 380.9 z" stroke-linecap="round" />
</g>
		<g transform="matrix(1 0 0 1 -17.03 -278.49)"  >
<path style="stroke: none; stroke-width: 1; stroke-dasharray: none; stroke-linecap: butt; stroke-dashoffset: 0; stroke-linejoin: miter; stroke-miterlimit: 4; fill: rgb(242,242,242); fill-rule: nonzero; opacity: 1;" vector-effect="non-scaling-stroke"  transform=" translate(-919.33, -286.6)" d="M 947.1 324.7 C 943.9 324.09999999999997 941 322.3 937.8000000000001 322.2 C 931.7 322 925.5000000000001 327.5 920.2 324.59999999999997 C 919 323.9 918 322.9 917 321.99999999999994 C 913.1 318.59999999999997 907.7 317.09999999999997 902.5 316.8999999999999 C 891.7 316.49999999999994 881.3 320.8999999999999 872.4 311.8999999999999 C 869.6999999999999 309.19999999999993 868 304.8999999999999 868.6 300.99999999999994 C 869.2 297.29999999999995 871.7 296.59999999999997 873.6 293.8999999999999 C 878.8000000000001 286.49999999999994 880.2 274.8999999999999 883 266.3999999999999 C 885 260.0999999999999 885.5 253.99999999999991 891.6 250.0999999999999 C 896 247.1999999999999 902.2 246.89999999999992 906.7 249.6999999999999 C 909.2 251.2999999999999 911 253.5999999999999 913.3000000000001 255.3999999999999 C 923.2 262.9999999999999 936.3000000000001 260.1999999999999 948.0000000000001 259.9999999999999 C 950.5000000000001 259.9999999999999 952.9000000000001 259.89999999999986 955.3000000000001 260.39999999999986 C 963.2 262.09999999999985 967.3000000000001 269.79999999999984 969.6 276.89999999999986 C 970.9 280.9999999999999 969.8000000000001 283.89999999999986 968.7 287.89999999999986 C 967.3000000000001 293.1999999999999 966.8000000000001 298.6999999999999 965.7 304.09999999999985 C 964.7 308.99999999999983 963.6 313.89999999999986 960.8000000000001 317.99999999999983 C 958.0000000000001 322.09999999999985 953.3000000000001 325.29999999999984 948.4000000000001 324.79999999999984 C 947.9 324.9 947.5 324.8 947.1 324.7 z" stroke-linecap="round" />
</g>
		<g transform="matrix(1 0 0 1 -125.02 -213.05)"  >
<path style="stroke: none; stroke-width: 1; stroke-dasharray: none; stroke-linecap: butt; stroke-dashoffset: 0; stroke-linejoin: miter; stroke-miterlimit: 4; fill: rgb(248,192,157); fill-rule: nonzero; opacity: 1;" vector-effect="non-scaling-stroke"  transform=" translate(-811.35, -352.05)" d="M 885.7 308.8 L 886 309.40000000000003 C 891 318.1 888 329.20000000000005 879.4 334.20000000000005 L 761.8 402 C 753.0999999999999 407 742 404 737 395.4 L 736.7 394.79999999999995 C 731.7 386.09999999999997 734.7 374.99999999999994 743.3000000000001 369.99999999999994 L 860.9000000000001 302.0999999999999 C 869.6 297.1 880.7 300.1 885.7 308.8 z" stroke-linecap="round" />
</g>
		<g transform="matrix(1 0 0 1 -24.73 -249.84)"  >
<path style="stroke: none; stroke-width: 1; stroke-dasharray: none; stroke-linecap: butt; stroke-dashoffset: 0; stroke-linejoin: miter; stroke-miterlimit: 4; fill: rgb(248,192,157); fill-rule: nonzero; opacity: 1;" vector-effect="non-scaling-stroke"  transform=" translate(-911.63, -315.27)" d="M 889.5 317.2 L 894.2 328.59999999999997 L 929.9000000000001 313.9 C 933.1000000000001 312.59999999999997 934.6000000000001 309 933.3000000000001 305.79999999999995 L 933.3000000000001 305.79999999999995 C 932.0000000000001 302.59999999999997 928.4000000000001 301.09999999999997 925.2 302.4 L 889.5 317.2 z" stroke-linecap="round" />
</g>
		<g transform="matrix(1 0 0 1 -53.9 -260.42)"  >
<path style="stroke: none; stroke-width: 1; stroke-dasharray: none; stroke-linecap: butt; stroke-dashoffset: 0; stroke-linejoin: miter; stroke-miterlimit: 4; fill: rgb(248,192,157); fill-rule: nonzero; opacity: 1;" vector-effect="non-scaling-stroke"  transform=" translate(-882.47, -304.68)" d="M 861.4 313.7 C 856 300.3 862.4 285.09999999999997 875.8 279.59999999999997 L 875.8 279.59999999999997 C 877.5999999999999 278.9 879.5999999999999 279.7 880.3 281.49999999999994 L 905.1999999999999 320.3999999999999 C 905.9 322.19999999999993 905.0999999999999 324.19999999999993 903.3 324.8999999999999 L 895.5999999999999 328.0999999999999 C 882.1 333.5 866.8 327.1 861.4 313.7 L 861.4 313.7 z" stroke-linecap="round" />
</g>
		<g transform="matrix(1 0 0 1 -24.73 -249.84)"  >
<path style="stroke: none; stroke-width: 1; stroke-dasharray: none; stroke-linecap: butt; stroke-dashoffset: 0; stroke-linejoin: miter; stroke-miterlimit: 4; fill: rgb(248,192,157); fill-rule: nonzero; opacity: 1;" vector-effect="non-scaling-stroke"  transform=" translate(-911.63, -315.27)" d="M 889.5 317.2 L 894.2 328.59999999999997 L 929.9000000000001 313.9 C 933.1000000000001 312.59999999999997 934.6000000000001 309 933.3000000000001 305.79999999999995 L 933.3000000000001 305.79999999999995 C 932.0000000000001 302.59999999999997 928.4000000000001 301.09999999999997 925.2 302.4 L 889.5 317.2 z" stroke-linecap="round" />
</g>
		<g transform="matrix(1 0 0 1 -25.28 -262.94)"  >
<path style="stroke: none; stroke-width: 1; stroke-dasharray: none; stroke-linecap: butt; stroke-dashoffset: 0; stroke-linejoin: miter; stroke-miterlimit: 4; fill: rgb(248,192,157); fill-rule: nonzero; opacity: 1;" vector-effect="non-scaling-stroke"  transform=" translate(-911.08, -302.17)" d="M 885.2 305.6 L 889.9000000000001 317 L 933.1000000000001 299.3 C 936.3000000000002 298 937.8000000000002 294.40000000000003 936.5000000000001 291.2 L 936.5000000000001 291.2 C 935.2000000000002 288 931.6000000000001 286.5 928.4000000000001 287.8 L 885.2 305.6 z" stroke-linecap="round" />
</g>
		<g transform="matrix(1 0 0 1 -24.58 -276.49)"  >
<path style="stroke: none; stroke-width: 1; stroke-dasharray: none; stroke-linecap: butt; stroke-dashoffset: 0; stroke-linejoin: miter; stroke-miterlimit: 4; fill: rgb(248,192,157); fill-rule: nonzero; opacity: 1;" vector-effect="non-scaling-stroke"  transform=" translate(-911.78, -288.62)" d="M 885.9 292 L 890.6 303.4 L 933.8000000000001 285.79999999999995 C 937.0000000000001 284.49999999999994 938.5000000000001 280.9 937.2 277.69999999999993 L 937.2 277.69999999999993 C 935.9000000000001 274.49999999999994 932.3000000000001 272.99999999999994 929.1 274.29999999999995 L 885.9 292 z" stroke-linecap="round" />
</g>
		<g transform="matrix(1 0 0 1 -33.94 -285.17)"  >
<path style="stroke: none; stroke-width: 1; stroke-dasharray: none; stroke-linecap: butt; stroke-dashoffset: 0; stroke-linejoin: miter; stroke-miterlimit: 4; fill: rgb(248,192,157); fill-rule: nonzero; opacity: 1;" vector-effect="non-scaling-stroke"  transform=" translate(-902.42, -279.93)" d="M 878.3 283.5 L 882.4 293.5 L 923.1999999999999 276.8 C 925.9999999999999 275.7 927.3 272.5 926.0999999999999 269.7 L 926.0999999999999 269.7 C 924.9999999999999 266.9 921.8 265.59999999999997 918.9999999999999 266.8 L 878.3 283.5 z" stroke-linecap="round" />
</g>
		<g transform="matrix(1 0 0 1 -60.18 -284.97)"  >
<path style="stroke: none; stroke-width: 1; stroke-dasharray: none; stroke-linecap: butt; stroke-dashoffset: 0; stroke-linejoin: miter; stroke-miterlimit: 4; fill: rgb(248,192,157); fill-rule: nonzero; opacity: 1;" vector-effect="non-scaling-stroke"  transform=" translate(-876.18, -280.12)" d="M 863.3 290.6 L 873.9 296.90000000000003 L 888.1999999999999 272.70000000000005 C 889.9 269.80000000000007 888.9999999999999 266.00000000000006 885.9999999999999 264.20000000000005 L 885.9999999999999 264.20000000000005 C 883.0999999999999 262.50000000000006 879.2999999999998 263.40000000000003 877.4999999999999 266.40000000000003 L 863.3 290.6 z" stroke-linecap="round" />
</g>
		<g transform="matrix(1 0 0 1 141.89 205.15)"  >
<polygon style="stroke: none; stroke-width: 1; stroke-dasharray: none; stroke-linecap: butt; stroke-dashoffset: 0; stroke-linejoin: miter; stroke-miterlimit: 4; fill: rgb(248,192,157); fill-rule: nonzero; opacity: 1;" vector-effect="non-scaling-stroke"  points="73.25,111.65 101.05,89.65 -56.35,-111.65 -101.05,-76.35 " />
</g>
		<g transform="matrix(1 0 0 1 75.28 139.3)"  >
<path style="stroke: none; stroke-width: 1; stroke-dasharray: none; stroke-linecap: butt; stroke-dashoffset: 0; stroke-linejoin: miter; stroke-miterlimit: 4; fill: rgb(34,181,115); fill-rule: nonzero; opacity: 1;" vector-effect="non-scaling-stroke"  transform=" translate(-1011.64, -704.4)" d="M 1019.1 767.8 C 1020.6 769.8 1022.8000000000001 771.0999999999999 1025.3 771.1999999999999 C 1031.6 771.5999999999999 1045.3 771.1999999999999 1065.8 763.4 C 1082.8 757 1091.2 750.5 1095.3 745.8 C 1098.1 742.6999999999999 1098.2 738 1095.6 734.8 L 1025.6999999999998 637.5 L 925.7999999999998 658.1 L 1019.1 767.8 z" stroke-linecap="round" />
</g>
		<g transform="matrix(1 0 0 1 111.19 174.35)"  >
<path style="stroke: none; stroke-width: 1; stroke-dasharray: none; stroke-linecap: butt; stroke-dashoffset: 0; stroke-linejoin: miter; stroke-miterlimit: 4; fill: rgb(27,150,91); fill-rule: nonzero; opacity: 1;" vector-effect="non-scaling-stroke"  transform=" translate(-1047.55, -739.45)" d="M 1092.7 730.8 C 1092.7 730.8 1071.8 745.3 1054.4 751.0999999999999 C 1030.8000000000002 758.8999999999999 1012.8000000000001 760.3999999999999 1012.8000000000001 760.3999999999999 L 1002.4000000000001 747.9999999999999 C 1002.4000000000001 747.9999999999999 1027.3000000000002 744.0999999999999 1045.9 737.1999999999999 C 1062.9 730.9 1083.9 718.4999999999999 1083.9 718.4999999999999 L 1092.7 730.8 z" stroke-linecap="round" />
</g>
		<g transform="matrix(1 0 0 1 238.22 284.3)"  >
<path style="stroke: none; stroke-width: 1; stroke-dasharray: none; stroke-linecap: butt; stroke-dashoffset: 0; stroke-linejoin: miter; stroke-miterlimit: 4; fill: rgb(21,97,160); fill-rule: nonzero; opacity: 1;" vector-effect="non-scaling-stroke"  transform=" translate(-1174.59, -849.4)" d="M 1158.2 821.6 C 1159.4 808.9 1171.7 800.3000000000001 1183.8 802.8000000000001 C 1183.8 802.8000000000001 1193 804.9000000000001 1194.8999999999999 805.4000000000001 C 1206.8 807.9000000000001 1185.1 898.3000000000001 1176.3 896.4000000000001 L 1176.3 896.4000000000001 C 1174.1 895.9000000000001 1167 894.3000000000001 1165 894.2 L 1165 894.2 C 1156 891.7 1148.8 881.7 1151.3 871.7 C 1152.3 867.7 1155.3 858.8000000000001 1156.1 853.6 C 1157.6 843.8 1157.1 833.7 1158.2 821.6 z" stroke-linecap="round" />
</g>
		<g transform="matrix(1 0 0 1 250.57 285.41)"  >
<path style="stroke: none; stroke-width: 1; stroke-dasharray: none; stroke-linecap: butt; stroke-dashoffset: 0; stroke-linejoin: miter; stroke-miterlimit: 4; fill: rgb(242,242,242); fill-rule: nonzero; opacity: 1;" vector-effect="non-scaling-stroke"  transform=" translate(-1186.93, -850.51)" d="M 1176.4 896.1 L 1176.4 896.1 C 1185.8000000000002 898.1 1195.1000000000001 892.4 1197.7 883.2 L 1211.2 831.3000000000001 C 1214.3 819.5000000000001 1206.9 807.6 1195 805.0000000000001 L 1195 805.0000000000001 C 1182.5 802.3000000000001 1170.5 811.2000000000002 1169.3 823.9000000000001 C 1168.2 836.0000000000001 1168.8 846.0000000000001 1167.3 855.8000000000001 C 1166.5 861.0000000000001 1163.5 869.8000000000001 1162.5 873.8000000000001 C 1160 883.8 1166.3 893.9 1176.4 896.1 z" stroke-linecap="round" />
</g>
		<g transform="matrix(1 0 0 1 132.78 83.96)"  >
<path style="stroke: none; stroke-width: 1; stroke-dasharray: none; stroke-linecap: butt; stroke-dashoffset: 0; stroke-linejoin: miter; stroke-miterlimit: 4; fill: rgb(248,192,157); fill-rule: nonzero; opacity: 1;" vector-effect="non-scaling-stroke"  transform=" translate(-1069.15, -649.05)" d="M 1094.8 571.4 L 1094.8 571.4 C 1104.5 574.6 1109.7 585 1106.5 594.6999999999999 L 1066.8 715 C 1063.6 724.7 1053.2 729.9 1043.5 726.7 L 1043.5 726.7 C 1033.8 723.5 1028.6 713.1 1031.8 703.4000000000001 L 1071.5 583.1000000000001 C 1074.7 573.5 1085.1 568.2 1094.8 571.4 z" stroke-linecap="round" />
</g>
		<g transform="matrix(1 0 0 1 358.64 115.1)"  >
<path style="stroke: none; stroke-width: 1; stroke-dasharray: none; stroke-linecap: butt; stroke-dashoffset: 0; stroke-linejoin: miter; stroke-miterlimit: 4; fill: rgb(242,242,242); fill-rule: nonzero; opacity: 1;" vector-effect="non-scaling-stroke"  transform=" translate(-1295, -680.2)" d="M 1391.3 689.9 L 1198.7 689.9 C 1193.3 689.9 1189 685.6 1189 680.1999999999999 L 1189 680.1999999999999 C 1189 674.8 1193.3 670.4999999999999 1198.7 670.4999999999999 L 1391.3 670.4999999999999 C 1396.7 670.4999999999999 1401 674.7999999999998 1401 680.1999999999999 L 1401 680.1999999999999 C 1401 685.6 1396.7 689.9 1391.3 689.9 z" stroke-linecap="round" />
</g>
		<g transform="matrix(1 0 0 1 410.04 115.1)"  >
<path style="stroke: none; stroke-width: 1; stroke-dasharray: none; stroke-linecap: butt; stroke-dashoffset: 0; stroke-linejoin: miter; stroke-miterlimit: 4; fill: rgb(77,77,77); fill-rule: nonzero; opacity: 1;" vector-effect="non-scaling-stroke"  transform=" translate(-1346.4, -680.2)" d="M 1351.1 725.3 L 1341.6999999999998 725.3 C 1336.9999999999998 725.3 1333.1999999999998 721.5 1333.1999999999998 716.8 L 1333.1999999999998 643.5999999999999 C 1333.1999999999998 638.8999999999999 1336.9999999999998 635.0999999999999 1341.6999999999998 635.0999999999999 L 1351.1 635.0999999999999 C 1355.8 635.0999999999999 1359.6 638.8999999999999 1359.6 643.5999999999999 L 1359.6 716.8 C 1359.6 721.5 1355.8 725.3 1351.1 725.3 z" stroke-linecap="round" />
</g>
		<g transform="matrix(1 0 0 1 436.34 115.1)"  >
<path style="stroke: none; stroke-width: 1; stroke-dasharray: none; stroke-linecap: butt; stroke-dashoffset: 0; stroke-linejoin: miter; stroke-miterlimit: 4; fill: rgb(77,77,77); fill-rule: nonzero; opacity: 1;" vector-effect="non-scaling-stroke"  transform=" translate(-1372.7, -680.2)" d="M 1377.4 717.9 L 1368 717.9 C 1363.3 717.9 1359.5 714.1 1359.5 709.4 L 1359.5 651 C 1359.5 646.3 1363.3 642.5 1368 642.5 L 1377.4 642.5 C 1382.1000000000001 642.5 1385.9 646.3 1385.9 651 L 1385.9 709.5 C 1385.9 714.1 1382.1 717.9 1377.4 717.9 z" stroke-linecap="round" />
</g>
		<g transform="matrix(1 0 0 1 307.04 115.1)"  >
<path style="stroke: none; stroke-width: 1; stroke-dasharray: none; stroke-linecap: butt; stroke-dashoffset: 0; stroke-linejoin: miter; stroke-miterlimit: 4; fill: rgb(77,77,77); fill-rule: nonzero; opacity: 1;" vector-effect="non-scaling-stroke"  transform=" translate(-1243.4, -680.2)" d="M 1238.7 725.3 L 1248.1000000000001 725.3 C 1252.8000000000002 725.3 1256.6000000000001 721.5 1256.6000000000001 716.8 L 1256.6000000000001 643.5999999999999 C 1256.6000000000001 638.8999999999999 1252.8000000000002 635.0999999999999 1248.1000000000001 635.0999999999999 L 1238.7 635.0999999999999 C 1234 635.0999999999999 1230.2 638.8999999999999 1230.2 643.5999999999999 L 1230.2 716.8 C 1230.2 721.5 1234 725.3 1238.7 725.3 z" stroke-linecap="round" />
</g>
		<g transform="matrix(1 0 0 1 280.74 115.1)"  >
<path style="stroke: none; stroke-width: 1; stroke-dasharray: none; stroke-linecap: butt; stroke-dashoffset: 0; stroke-linejoin: miter; stroke-miterlimit: 4; fill: rgb(77,77,77); fill-rule: nonzero; opacity: 1;" vector-effect="non-scaling-stroke"  transform=" translate(-1217.1, -680.2)" d="M 1212.4 717.9 L 1221.8000000000002 717.9 C 1226.5000000000002 717.9 1230.3000000000002 714.1 1230.3000000000002 709.4 L 1230.3000000000002 651 C 1230.3000000000002 646.3 1226.5000000000002 642.5 1221.8000000000002 642.5 L 1212.4 642.5 C 1207.7 642.5 1203.9 646.3 1203.9 651 L 1203.9 709.5 C 1203.9 714.1 1207.7 717.9 1212.4 717.9 z" stroke-linecap="round" />
</g>
		<g transform="matrix(1 0 0 1 393.49 115.05)"  >
<path style="stroke: none; stroke-width: 1; stroke-dasharray: none; stroke-linecap: butt; stroke-dashoffset: 0; stroke-linejoin: miter; stroke-miterlimit: 4; fill: rgb(179,179,179); fill-rule: nonzero; opacity: 1;" vector-effect="non-scaling-stroke"  transform=" translate(-1329.85, -680.15)" d="M 1333.3 697.5 L 1330.8 697.5 C 1328.3999999999999 697.5 1326.3999999999999 695.5 1326.3999999999999 693.1 L 1326.3999999999999 667.2 C 1326.3999999999999 664.8000000000001 1328.3999999999999 662.8000000000001 1330.8 662.8000000000001 L 1333.3 662.8000000000001 L 1333.3 697.5 z" stroke-linecap="round" />
</g>
		<g transform="matrix(1 0 0 1 323.59 115.05)"  >
<path style="stroke: none; stroke-width: 1; stroke-dasharray: none; stroke-linecap: butt; stroke-dashoffset: 0; stroke-linejoin: miter; stroke-miterlimit: 4; fill: rgb(179,179,179); fill-rule: nonzero; opacity: 1;" vector-effect="non-scaling-stroke"  transform=" translate(-1259.95, -680.15)" d="M 1256.5 697.5 L 1259 697.5 C 1261.4 697.5 1263.4 695.5 1263.4 693.1 L 1263.4 667.2 C 1263.4 664.8000000000001 1261.4 662.8000000000001 1259 662.8000000000001 L 1256.5 662.8000000000001 L 1256.5 697.5 z" stroke-linecap="round" />
</g>
		<g transform="matrix(1 0 0 1 426.14 115.15)"  >
<path style="stroke: none; stroke-width: 1; stroke-dasharray: none; stroke-linecap: butt; stroke-dashoffset: 0; stroke-linejoin: miter; stroke-miterlimit: 4; fill: rgb(51,51,51); fill-rule: nonzero; opacity: 1;" vector-effect="non-scaling-stroke"  transform=" translate(-1362.5, -680.25)" d="M 1366 717.7 L 1366 642.8000000000001 C 1363 643.7 1359 647.0000000000001 1359 651.0000000000001 L 1359 709.5000000000001 C 1359 713.4 1363 716.8 1366 717.7 z" stroke-linecap="round" />
</g>
		<g transform="matrix(1 0 0 1 291.14 115.15)"  >
<path style="stroke: none; stroke-width: 1; stroke-dasharray: none; stroke-linecap: butt; stroke-dashoffset: 0; stroke-linejoin: miter; stroke-miterlimit: 4; fill: rgb(51,51,51); fill-rule: nonzero; opacity: 1;" vector-effect="non-scaling-stroke"  transform=" translate(-1227.5, -680.25)" d="M 1224 642.8 L 1224 717.6999999999999 C 1227 716.8 1231 713.4999999999999 1231 709.4999999999999 L 1231 651 C 1231 647 1227 643.7 1224 642.8 z" stroke-linecap="round" />
</g>
		<g transform="matrix(1 0 0 1 -367.35 186.1)"  >
<path style="stroke: none; stroke-width: 1; stroke-dasharray: none; stroke-linecap: butt; stroke-dashoffset: 0; stroke-linejoin: miter; stroke-miterlimit: 4; fill: rgb(242,242,242); fill-rule: nonzero; opacity: 1;" vector-effect="non-scaling-stroke"  transform=" translate(-569.02, -751.2)" d="M 660.6 720 L 485.40000000000003 800 C 480.50000000000006 802.2 474.8 800.1 472.6 795.2 L 472.6 795.2 C 470.40000000000003 790.3000000000001 472.5 784.6 477.40000000000003 782.4000000000001 L 652.6 702.4000000000001 C 657.5 700.2 663.2 702.3000000000001 665.4 707.2 L 665.4 707.2 C 667.7 712.1 665.5 717.8 660.6 720 z" stroke-linecap="round" />
</g>
		<g transform="matrix(1 0 0 1 -320.59 164.75)"  >
<path style="stroke: none; stroke-width: 1; stroke-dasharray: none; stroke-linecap: butt; stroke-dashoffset: 0; stroke-linejoin: miter; stroke-miterlimit: 4; fill: rgb(77,77,77); fill-rule: nonzero; opacity: 1;" vector-effect="non-scaling-stroke"  transform=" translate(-615.77, -729.85)" d="M 638.8 768.9 L 630.3 772.8 C 626.0999999999999 774.6999999999999 621 772.9 619.0999999999999 768.5999999999999 L 588.6 702 C 586.7 697.8 588.5 692.7 592.8000000000001 690.8 L 601.3000000000001 686.9 C 605.5000000000001 685 610.6 686.8 612.5000000000001 691.1 L 642.9000000000001 757.7 C 644.9 762 643 767 638.8 768.9 z" stroke-linecap="round" />
</g>
		<g transform="matrix(1 0 0 1 -296.67 153.85)"  >
<path style="stroke: none; stroke-width: 1; stroke-dasharray: none; stroke-linecap: butt; stroke-dashoffset: 0; stroke-linejoin: miter; stroke-miterlimit: 4; fill: rgb(77,77,77); fill-rule: nonzero; opacity: 1;" vector-effect="non-scaling-stroke"  transform=" translate(-639.7, -718.95)" d="M 659.6 751.3 L 651.1 755.1999999999999 C 646.9 757.0999999999999 641.8000000000001 755.3 639.9 750.9999999999999 L 615.6 697.7999999999998 C 613.7 693.5999999999998 615.5 688.4999999999999 619.8000000000001 686.5999999999998 L 628.3000000000001 682.6999999999998 C 632.5000000000001 680.7999999999998 637.6 682.5999999999998 639.5000000000001 686.8999999999999 L 663.8000000000001 740.0999999999999 C 665.7 744.3 663.9 749.4 659.6 751.3 z" stroke-linecap="round" />
</g>
		<g transform="matrix(1 0 0 1 -414.31 207.65)"  >
<path style="stroke: none; stroke-width: 1; stroke-dasharray: none; stroke-linecap: butt; stroke-dashoffset: 0; stroke-linejoin: miter; stroke-miterlimit: 4; fill: rgb(77,77,77); fill-rule: nonzero; opacity: 1;" vector-effect="non-scaling-stroke"  transform=" translate(-522.05, -772.75)" d="M 536.5 815.7 L 545 811.8000000000001 C 549.2 809.9000000000001 551.1 804.8000000000001 549.2 800.6 L 518.8000000000001 734 C 516.9000000000001 729.8 511.80000000000007 727.9 507.6000000000001 729.8 L 499.1000000000001 733.6999999999999 C 494.9000000000001 735.5999999999999 493.00000000000006 740.6999999999999 494.9000000000001 744.9 L 525.3000000000001 811.5 C 527.2 815.7 532.2 817.6 536.5 815.7 z" stroke-linecap="round" />
</g>
		<g transform="matrix(1 0 0 1 -438.26 218.48)"  >
<path style="stroke: none; stroke-width: 1; stroke-dasharray: none; stroke-linecap: butt; stroke-dashoffset: 0; stroke-linejoin: miter; stroke-miterlimit: 4; fill: rgb(77,77,77); fill-rule: nonzero; opacity: 1;" vector-effect="non-scaling-stroke"  transform=" translate(-498.1, -783.58)" d="M 509.5 819.8 L 518 815.9 C 522.2 814 524.1 808.9 522.2 804.6999999999999 L 497.90000000000003 751.4999999999999 C 496.00000000000006 747.2999999999998 490.90000000000003 745.3999999999999 486.70000000000005 747.2999999999998 L 478.20000000000005 751.1999999999998 C 474.00000000000006 753.0999999999998 472.1 758.1999999999998 474.00000000000006 762.3999999999999 L 498.30000000000007 815.5999999999999 C 500.2 819.9 505.3 821.8 509.5 819.8 z" stroke-linecap="round" />
</g>
		<g transform="matrix(1 0 0 1 -334.96 170.94)"  >
<path style="stroke: none; stroke-width: 1; stroke-dasharray: none; stroke-linecap: butt; stroke-dashoffset: 0; stroke-linejoin: miter; stroke-miterlimit: 4; fill: rgb(179,179,179); fill-rule: nonzero; opacity: 1;" vector-effect="non-scaling-stroke"  transform=" translate(-601.41, -736.04)" d="M 611 751.1 L 608.7 752.1 C 606.5 753.1 603.9000000000001 752.1 602.9000000000001 749.9 L 592.2 726.4 C 591.2 724.1999999999999 592.2 721.6 594.4000000000001 720.6 L 596.7 719.6 L 611 751.1 z" stroke-linecap="round" />
</g>
		<g transform="matrix(1 0 0 1 -399.97 201.45)"  >
<path style="stroke: none; stroke-width: 1; stroke-dasharray: none; stroke-linecap: butt; stroke-dashoffset: 0; stroke-linejoin: miter; stroke-miterlimit: 4; fill: rgb(179,179,179); fill-rule: nonzero; opacity: 1;" vector-effect="non-scaling-stroke"  transform=" translate(-536.39, -766.56)" d="M 541.1 783 L 543.4 782 C 545.6 781 546.6 778.4 545.6 776.2 L 534.9 752.7 C 533.9 750.5 531.3 749.5 529.1 750.5 L 526.8000000000001 751.5 L 541.1 783 z" stroke-linecap="round" />
</g>
		<g transform="matrix(1 0 0 1 -304.59 156.68)"  >
<path style="stroke: none; stroke-width: 1; stroke-dasharray: none; stroke-linecap: butt; stroke-dashoffset: 0; stroke-linejoin: miter; stroke-miterlimit: 4; fill: rgb(51,51,51); fill-rule: nonzero; opacity: 1;" vector-effect="non-scaling-stroke"  transform=" translate(-631.78, -721.78)" d="M 649.1 755.8 L 618 687.7 C 615.6 689.8000000000001 613.4 694.5 615 698.1 L 639.3 751.3000000000001 C 641 754.9 646 756.2 649.1 755.8 z" stroke-linecap="round" />
</g>
		<g transform="matrix(1 0 0 1 -430.14 215.61)"  >
<path style="stroke: none; stroke-width: 1; stroke-dasharray: none; stroke-linecap: butt; stroke-dashoffset: 0; stroke-linejoin: miter; stroke-miterlimit: 4; fill: rgb(51,51,51); fill-rule: nonzero; opacity: 1;" vector-effect="non-scaling-stroke"  transform=" translate(-506.22, -780.72)" d="M 488.9 746.7 L 520 814.8000000000001 C 522.4 812.7 524.6 808.0000000000001 523 804.4000000000001 L 498.7 751.2 C 497 747.6 492 746.3 488.9 746.7 z" stroke-linecap="round" />
</g>
		<g transform="matrix(1 0 0 1 117.46 177.57)"  >
<path style="stroke: none; stroke-width: 1; stroke-dasharray: none; stroke-linecap: butt; stroke-dashoffset: 0; stroke-linejoin: miter; stroke-miterlimit: 4; fill: rgb(248,192,157); fill-rule: nonzero; opacity: 1;" vector-effect="non-scaling-stroke"  transform=" translate(-1053.83, -742.67)" d="M 1056.4 720.7 L 1067.7 725.8000000000001 L 1051.8 761.0000000000001 C 1050.3999999999999 764.1000000000001 1046.7 765.5000000000001 1043.6 764.1000000000001 L 1043.6 764.1000000000001 C 1040.5 762.7000000000002 1039.1 759.0000000000001 1040.5 755.9000000000001 L 1056.4 720.7 z" stroke-linecap="round" />
</g>
		<g transform="matrix(1 0 0 1 107.78 148.26)"  >
<path style="stroke: none; stroke-width: 1; stroke-dasharray: none; stroke-linecap: butt; stroke-dashoffset: 0; stroke-linejoin: miter; stroke-miterlimit: 4; fill: rgb(248,192,157); fill-rule: nonzero; opacity: 1;" vector-effect="non-scaling-stroke"  transform=" translate(-1044.15, -713.36)" d="M 1053.9 692.4 C 1040.7 686.5 1025.3000000000002 692.4 1019.3000000000001 705.6 L 1019.3000000000001 705.6 C 1018.5000000000001 707.3000000000001 1019.3000000000001 709.4 1021.0000000000001 710.1 L 1059 736.3000000000001 C 1060.7 737.1 1062.8 736.3000000000001 1063.5 734.6 L 1066.9 727 C 1073 713.8 1067.1 698.3 1053.9 692.4 L 1053.9 692.4 z" stroke-linecap="round" />
</g>
		<g transform="matrix(1 0 0 1 117.46 177.57)"  >
<path style="stroke: none; stroke-width: 1; stroke-dasharray: none; stroke-linecap: butt; stroke-dashoffset: 0; stroke-linejoin: miter; stroke-miterlimit: 4; fill: rgb(248,192,157); fill-rule: nonzero; opacity: 1;" vector-effect="non-scaling-stroke"  transform=" translate(-1053.83, -742.67)" d="M 1056.4 720.7 L 1067.7 725.8000000000001 L 1051.8 761.0000000000001 C 1050.3999999999999 764.1000000000001 1046.7 765.5000000000001 1043.6 764.1000000000001 L 1043.6 764.1000000000001 C 1040.5 762.7000000000002 1039.1 759.0000000000001 1040.5 755.9000000000001 L 1056.4 720.7 z" stroke-linecap="round" />
</g>
		<g transform="matrix(1 0 0 1 104.31 176.52)"  >
<path style="stroke: none; stroke-width: 1; stroke-dasharray: none; stroke-linecap: butt; stroke-dashoffset: 0; stroke-linejoin: miter; stroke-miterlimit: 4; fill: rgb(248,192,157); fill-rule: nonzero; opacity: 1;" vector-effect="non-scaling-stroke"  transform=" translate(-1040.68, -741.62)" d="M 1044.9 716 L 1056.2 721.1 L 1037 763.6 C 1035.6 766.7 1031.9 768.1 1028.8 766.7 L 1028.8 766.7 C 1025.7 765.3000000000001 1024.3 761.6 1025.7 758.5 L 1044.9 716 z" stroke-linecap="round" />
</g>
		<g transform="matrix(1 0 0 1 90.76 176.72)"  >
<path style="stroke: none; stroke-width: 1; stroke-dasharray: none; stroke-linecap: butt; stroke-dashoffset: 0; stroke-linejoin: miter; stroke-miterlimit: 4; fill: rgb(248,192,157); fill-rule: nonzero; opacity: 1;" vector-effect="non-scaling-stroke"  transform=" translate(-1027.13, -741.82)" d="M 1031.3 716.2 L 1042.6 721.2 L 1023.4999999999999 763.8000000000001 C 1022.0999999999999 766.9000000000001 1018.4999999999999 768.3000000000001 1015.2999999999998 766.9000000000001 L 1015.2999999999998 766.9000000000001 C 1012.1999999999998 765.5000000000001 1010.7999999999998 761.9000000000001 1012.1999999999998 758.7 L 1031.3 716.2 z" stroke-linecap="round" />
</g>
		<g transform="matrix(1 0 0 1 82.45 167.08)"  >
<path style="stroke: none; stroke-width: 1; stroke-dasharray: none; stroke-linecap: butt; stroke-dashoffset: 0; stroke-linejoin: miter; stroke-miterlimit: 4; fill: rgb(248,192,157); fill-rule: nonzero; opacity: 1;" vector-effect="non-scaling-stroke"  transform=" translate(-1018.82, -732.18)" d="M 1023.1 708.3 L 1033 712.6999999999999 L 1014.9 752.9 C 1013.6999999999999 755.6 1010.5 756.8 1007.8 755.6 L 1007.8 755.6 C 1005.0999999999999 754.4 1003.9 751.2 1005.0999999999999 748.5 L 1023.1 708.3 z" stroke-linecap="round" />
</g>
		<g transform="matrix(1 0 0 1 83.32 140.92)"  >
<path style="stroke: none; stroke-width: 1; stroke-dasharray: none; stroke-linecap: butt; stroke-dashoffset: 0; stroke-linejoin: miter; stroke-miterlimit: 4; fill: rgb(248,192,157); fill-rule: nonzero; opacity: 1;" vector-effect="non-scaling-stroke"  transform=" translate(-1019.68, -706.02)" d="M 1030.7 693.5 L 1036.6000000000001 704.4 L 1011.9000000000001 717.8 C 1008.9000000000001 719.4 1005.2 718.3 1003.5000000000001 715.3 L 1003.5000000000001 715.3 C 1001.9000000000001 712.3 1003.0000000000001 708.5999999999999 1006.0000000000001 706.9 L 1030.7 693.5 z" stroke-linecap="round" />
</g>
		<g transform="matrix(1 0 0 1 116.17 -147.99)"  >
<path style="stroke: none; stroke-width: 1; stroke-dasharray: none; stroke-linecap: butt; stroke-dashoffset: 0; stroke-linejoin: miter; stroke-miterlimit: 4; fill: rgb(242,242,242); fill-rule: nonzero; opacity: 1;" vector-effect="non-scaling-stroke"  transform=" translate(-1052.53, -417.11)" d="M 1041.3 411.8 C 1041.3 411.8 1050.5 420.7 1057.6 422.2 C 1064.6 423.8 1065.8 416.5 1060.3 414 C 1054.8 411.5 1041.3 411.8 1041.3 411.8 z" stroke-linecap="round" />
</g>
		<g transform="matrix(1 0 0 1 137.97 -170.55)"  >
<path style="stroke: none; stroke-width: 1; stroke-dasharray: none; stroke-linecap: butt; stroke-dashoffset: 0; stroke-linejoin: miter; stroke-miterlimit: 4; fill: rgb(242,242,242); fill-rule: nonzero; opacity: 1;" vector-effect="non-scaling-stroke"  transform=" translate(-1074.33, -394.54)" d="M 1062.6 392.3 C 1062.6 392.3 1073.5 399 1080.6999999999998 399 C 1087.8999999999996 399 1087.4999999999998 391.7 1081.6 390.4 C 1075.7 389.09999999999997 1062.6 392.3 1062.6 392.3 z" stroke-linecap="round" />
</g>
		<g transform="matrix(1 0 0 1 130.18 -114.36)"  >
<path style="stroke: none; stroke-width: 1; stroke-dasharray: none; stroke-linecap: butt; stroke-dashoffset: 0; stroke-linejoin: miter; stroke-miterlimit: 4; fill: rgb(242,242,242); fill-rule: nonzero; opacity: 1;" vector-effect="non-scaling-stroke"  transform=" translate(-1066.54, -450.74)" d="M 1056 441.6 C 1056 441.6 1062.3 454.3 1069.1 458.6 C 1075.8999999999999 462.8 1079.6999999999998 455.70000000000005 1075 451 C 1070.4 446.3 1056 441.6 1056 441.6 z" stroke-linecap="round" />
</g>
		<g transform="matrix(1 0 0 1 -199.49 -121.58)"  >
<path style="stroke: none; stroke-width: 1; stroke-dasharray: none; stroke-linecap: butt; stroke-dashoffset: 0; stroke-linejoin: miter; stroke-miterlimit: 4; fill: rgb(242,242,242); fill-rule: nonzero; opacity: 1;" vector-effect="non-scaling-stroke"  transform=" translate(-736.88, -443.52)" d="M 745.5 434.4 C 745.5 434.4 733.7 439.5 729.6 445.29999999999995 C 725.5 451.0999999999999 731.7 454.99999999999994 736.1 450.99999999999994 C 740.5 446.99999999999994 745.5 434.4 745.5 434.4 z" stroke-linecap="round" />
</g>
		<g transform="matrix(1 0 0 1 -235.94 -121.47)"  >
<path style="stroke: none; stroke-width: 1; stroke-dasharray: none; stroke-linecap: butt; stroke-dashoffset: 0; stroke-linejoin: miter; stroke-miterlimit: 4; fill: rgb(242,242,242); fill-rule: nonzero; opacity: 1;" vector-effect="non-scaling-stroke"  transform=" translate(-700.43, -443.63)" d="M 712.3 436.4 C 712.3 436.4 698.0999999999999 437.29999999999995 691.5999999999999 441.9 C 685.0999999999999 446.5 690.0999999999999 452.79999999999995 696.3 450.29999999999995 C 702.4 447.8 712.3 436.4 712.3 436.4 z" stroke-linecap="round" />
</g>
</g>
</g>
</svg>